HIERARCHY
ROOT Pelvis
{
	OFFSET 0.000000 0.000000 0.000000
	CHANNELS 6 Xposition Yposition Zposition Zrotation Yrotation Xrotation 
	JOINT Left_hip
	{
		OFFSET 0.070241 -0.085575 -0.010474
		CHANNELS 3 Zrotation Yrotation Xrotation
		JOINT Left_knee
		{
			OFFSET 0.032125 -0.356873 -0.000555
			CHANNELS 3 Zrotation Yrotation Xrotation
			JOINT Left_ankle
			{
				OFFSET -0.010961 -0.370212 -0.042278
				CHANNELS 3 Zrotation Yrotation Xrotation
				JOINT Left_foot
				{
					OFFSET 0.023322 -0.052281 0.110104
					CHANNELS 3 Zrotation Yrotation Xrotation
					End Site
					{
						OFFSET 0.000000 0.000000 0.000000
					}
				}
			}
		}
	}
	JOINT Right_hip
	{
		OFFSET -0.068518 -0.084320 -0.007402
		CHANNELS 3 Zrotation Yrotation Xrotation
		JOINT Right_knee
		{
			OFFSET -0.037345 -0.364815 -0.003619
			CHANNELS 3 Zrotation Yrotation Xrotation
			JOINT Right_ankle
			{
				OFFSET 0.013394 -0.370006 -0.039954
				CHANNELS 3 Zrotation Yrotation Xrotation
				JOINT Right_foot
				{
					OFFSET -0.019600 -0.045455 0.113223
					CHANNELS 3 Zrotation Yrotation Xrotation
					End Site
					{
						OFFSET 0.000000 0.000000 0.000000
					}
				}
			}
		}
	}
	JOINT Spine1
	{
		OFFSET -0.002404 0.098129 -0.018169
		CHANNELS 3 Zrotation Yrotation Xrotation
		JOINT Spine2
		{
			OFFSET 0.003989 0.127209 -0.001742
			CHANNELS 3 Zrotation Yrotation Xrotation
			JOINT Spine3
			{
				OFFSET 0.001758 0.046641 0.023475
				CHANNELS 3 Zrotation Yrotation Xrotation
				JOINT Neck
				{
					OFFSET -0.003759 0.194901 -0.039982
					CHANNELS 3 Zrotation Yrotation Xrotation
					JOINT Head
					{
						OFFSET 0.003999 0.063756 0.047665
						CHANNELS 3 Zrotation Yrotation Xrotation
						End Site
						{
							OFFSET 0.000000 0.000000 0.000000
						}
					}
				}
				JOINT Left_collar
				{
					OFFSET 0.071816 0.109048 -0.028973
					CHANNELS 3 Zrotation Yrotation Xrotation
					JOINT Left_shoulder
					{
						OFFSET 0.084027 0.032269 -0.006525
						CHANNELS 3 Zrotation Yrotation Xrotation
						JOINT Left_elbow
						{
							OFFSET 0.243854 -0.013992 -0.025905
							CHANNELS 3 Zrotation Yrotation Xrotation
							JOINT Left_wrist
							{
								OFFSET 0.232156 0.008196 -0.000339
								CHANNELS 3 Zrotation Yrotation Xrotation
								JOINT Left_palm
								{
									OFFSET 0.075377 -0.009461 -0.012494
									CHANNELS 3 Zrotation Yrotation Xrotation
									End Site
									{
										OFFSET 0.000000 0.000000 0.000000
									}
								}
							}
						}
					}
				}
				JOINT Right_collar
				{
					OFFSET -0.073768 0.107001 -0.033755
					CHANNELS 3 Zrotation Yrotation Xrotation
					JOINT Right_shoulder
					{
						OFFSET -0.086837 0.032868 -0.009431
						CHANNELS 3 Zrotation Yrotation Xrotation
						JOINT Right_elbow
						{
							OFFSET -0.236446 -0.012544 -0.018747
							CHANNELS 3 Zrotation Yrotation Xrotation
							JOINT Right_wrist
							{
								OFFSET -0.236110 0.006124 -0.004327
								CHANNELS 3 Zrotation Yrotation Xrotation
								JOINT Right_palm
								{
									OFFSET -0.074800 -0.006875 -0.009610
									CHANNELS 3 Zrotation Yrotation Xrotation
									End Site
									{
										OFFSET 0.000000 0.000000 0.000000
									}
								}
							}
						}
					}
				}
			}
		}
	}
}
MOTION
Frames: 16
Frame Time: 0.100000
0.000000 0.000000 0.000000 177.559469 22.210585 -10.784844 -2.197202 3.837130 1.315223 0.007218 -7.456568 -3.140019 -2.874627 22.920618 -3.532176 10.215380 -2.895453 0.964929 1.898838 -3.794435 1.694002 -0.909537 7.456918 -1.679270 -2.935761 -19.662526 -2.800940 8.417690 4.698952 6.266265 0.002241 2.815389 -1.927714 1.309751 -2.252656 -2.307062 -0.553760 2.170984 -3.849048 -4.541022 -2.664255 5.926126 0.034016 -0.697603 2.485281 -7.358441 3.649929 -10.846111 3.878368 -18.753368 -12.666028 3.595288 13.781286 -6.309966 0.489581 -3.482797 35.701020 0.743464 -6.726752 -0.998001 11.839563 1.195815 -8.209630 -3.976080 14.928914 -17.039950 -10.213807 -10.495803 -10.765540 -4.304627 2.401588 33.006055 6.959141 7.714222 -3.062389 
0.000772 -0.000142 0.001113 177.455321 22.195546 -10.890434 -2.032389 3.852758 1.387733 -0.005034 -7.474097 -3.058639 -2.700020 22.928837 -3.537837 10.057992 -2.744515 0.890004 2.051076 -3.793259 1.701422 -0.845193 7.487757 -1.482822 -2.994781 -19.706991 -2.865474 8.513700 4.668728 6.321566 -0.261225 2.819984 -1.964546 1.439388 -2.309960 -2.295235 -0.462584 2.129247 -3.832400 -4.255264 -2.231641 5.957860 0.137265 -0.497312 3.002458 -7.112976 3.527977 -10.836738 4.302045 -18.759351 -12.841578 3.291173 13.563587 -6.095379 -0.274180 -2.927288 35.903155 0.609411 -6.773759 -1.211729 11.996095 1.426661 -8.180460 -3.889493 15.343698 -16.872314 -10.166921 -10.395972 -10.499906 -3.639214 1.738927 32.997558 7.019637 7.713072 -3.124314 
0.001634 -0.000245 0.001761 177.293953 22.491890 -10.829238 -1.884432 3.791332 1.336866 0.013744 -7.693476 -3.213789 -2.687241 22.905990 -3.474928 10.021198 -2.661502 0.928830 2.237024 -3.780307 1.604622 -0.859983 7.405638 -1.458773 -3.176769 -19.920563 -2.795382 8.659236 4.592739 6.316126 -0.532645 2.720286 -1.881997 1.553667 -2.440093 -2.397225 -0.338571 1.987120 -3.868766 -3.764681 -2.280741 5.662983 0.541107 -0.572882 3.081991 -7.032135 3.364076 -10.804475 4.803443 -18.792926 -13.163180 3.344804 13.622539 -6.245829 -0.289896 -2.683143 36.128240 0.590423 -6.796221 -1.141611 12.006659 1.419774 -8.212019 -3.849862 15.283175 -16.749531 -10.246156 -10.376181 -10.146812 -3.570572 1.483697 33.069349 6.994703 7.765096 -2.973868 
0.001888 -0.000296 0.001899 177.264491 22.540767 -10.676561 -1.851792 3.781739 1.252802 0.058042 -7.685656 -3.411405 -2.712689 22.889611 -3.388200 9.966170 -2.667409 0.926204 2.297038 -3.823131 1.461634 -0.862883 7.324196 -1.546476 -3.267885 -19.996812 -2.669446 8.801345 4.636767 6.406053 -0.576860 2.696094 -1.909032 1.568901 -2.449584 -2.455483 -0.324803 1.970169 -3.913857 -3.559389 -2.401548 5.540896 0.678912 -0.670550 3.203570 -7.069032 3.367967 -10.785203 4.899496 -18.877724 -13.171528 3.223833 13.241196 -6.317190 -0.261246 -2.737406 36.093685 0.522638 -6.842955 -1.157482 11.985691 1.310923 -8.156161 -3.937010 15.103127 -16.777425 -10.208157 -10.728166 -10.104973 -3.638056 1.420465 33.200147 6.993720 7.868812 -3.000723 
0.002790 -0.000509 -0.001916 177.341821 22.120290 -10.758374 -1.958165 3.659792 0.387009 -0.073944 -7.376951 -1.996492 -2.469672 23.247326 -3.230583 9.956596 -2.809848 0.290232 2.005672 -3.780764 -0.470591 -0.196890 7.167301 1.706782 -2.707411 -19.973371 -2.738425 7.875987 5.215694 5.801124 -0.316737 2.597671 -1.196166 1.439214 -2.267049 -2.949273 -0.383857 2.117654 -3.698307 -3.630226 -2.634129 5.115161 0.998415 -0.322580 3.916950 -7.178515 3.367180 -10.876392 4.481967 -18.894493 -13.234812 3.636534 12.381186 -6.832805 -0.108724 -2.386218 35.232356 0.058621 -7.096138 -1.232006 11.906223 1.346808 -8.017278 -3.624115 15.137456 -16.906244 -10.389927 -10.694863 -10.293356 -3.773782 1.224903 32.913093 7.258852 8.115506 -3.174486 
0.006380 0.001866 -0.020180 177.433893 21.293025 -12.646120 -2.124123 3.344353 -1.118281 -0.639224 -7.043698 2.662467 -2.349301 25.018201 -3.090095 11.341840 -3.731484 -2.975555 1.807268 -3.376514 -5.041735 0.908629 7.661957 11.733265 -1.001859 -20.834851 -2.903720 4.272393 8.712855 3.615792 -0.179395 2.530727 2.127038 1.016229 -1.713468 -4.149682 -0.466339 2.888319 -1.888966 -4.068888 -4.179376 3.353524 2.749683 0.846400 6.410151 -7.274888 2.683348 -11.035767 3.775948 -22.340447 -15.551244 7.040953 0.062742 -12.496250 8.078226 -2.885054 27.314578 -3.462876 -7.998838 0.056475 11.910403 2.462189 -7.071449 -2.438804 17.883838 -18.163712 -11.446476 -9.554838 -11.581305 -10.865123 0.875009 31.065582 8.603489 9.439742 -2.297359 
0.013644 0.010943 -0.055331 176.614840 21.154846 -15.201992 -1.634938 3.319113 -4.473804 -1.498408 -5.036325 8.539178 -3.219739 25.201214 -2.364091 14.285573 -4.263126 -7.413949 1.786507 -2.395203 -9.692841 1.722206 7.302801 20.031976 1.963032 -20.362653 -1.030269 -2.129553 11.617035 -0.479939 -0.448092 2.134019 6.564455 1.323364 -2.067917 -3.303723 -0.098805 3.042177 -0.683185 -4.594058 -5.436861 1.182020 4.710112 1.041097 8.958138 -6.570396 -0.589283 -9.539537 1.371922 -26.808489 -13.007565 13.038346 -26.088618 -7.005459 21.045192 -9.884171 20.562017 -6.819573 -8.144220 1.108096 11.836400 6.015227 -5.885353 1.370085 21.493467 -15.688255 -12.659398 6.251815 -10.596588 -20.015182 6.800667 22.921622 9.646060 9.369059 0.378996 
0.023577 0.021992 -0.102706 175.092348 18.349824 -14.872964 0.758876 4.102961 -9.818196 -1.332897 0.679932 10.417701 -2.826130 21.045940 1.211373 13.257804 -0.435840 -10.520391 3.073272 -0.106389 -12.654484 0.858610 6.813682 16.864714 5.436660 -16.143600 1.415379 -8.399152 10.058268 -1.847309 -0.535912 1.818859 9.517868 2.609188 -2.845194 -1.944470 0.689062 2.627828 -0.831021 -2.679747 -4.743645 0.056337 5.196421 -3.144201 8.304062 -3.935239 -2.955804 -8.761218 -9.852632 -29.834644 -5.825544 25.924722 -51.995765 -6.307356 26.315700 -13.376825 14.924917 -8.939321 -7.667831 -0.587786 11.599693 9.743813 -5.005206 15.522019 27.157955 -7.454140 -24.643214 33.153671 -13.980567 -26.650165 10.238869 12.297815 10.614510 8.022788 0.965922 
0.033336 0.031587 -0.147199 175.066900 13.088451 -12.854231 1.991317 5.918613 -13.063472 0.099808 4.686161 8.028331 -0.889579 14.597808 4.731589 5.957086 5.546369 -15.575273 4.051503 0.246952 -11.927756 0.334699 7.475774 15.356053 10.129367 -12.257005 -5.761403 -14.944474 8.826156 1.580934 -0.132589 2.133953 9.839307 3.219817 -3.220653 -0.574944 0.808433 2.455239 -3.647417 -0.768166 -9.348362 -0.961819 3.167296 -10.563347 14.819240 -5.539723 -4.634193 -7.496257 -29.073869 -24.475642 8.218763 34.581918 -77.300048 -3.574830 25.648735 -9.535301 20.573899 -17.325214 -15.658058 -12.799995 15.849315 12.983052 -2.434178 37.989082 27.716615 8.501517 -42.921957 58.236013 -24.170098 -29.790016 7.267838 5.476946 17.682295 12.464369 -6.952751 
0.044221 0.048251 -0.188284 176.683383 8.236504 -12.914634 2.946490 6.990246 -14.796166 -0.543426 6.636386 8.226717 0.530299 12.989581 5.839110 5.146094 8.486181 -17.342892 2.365124 -0.742989 -9.032522 0.398162 2.891630 32.693199 9.312168 -11.850496 -12.125133 -16.176589 6.708973 2.882684 0.258849 1.564299 9.822075 2.984108 -2.383921 0.531404 -0.537149 2.045417 -4.001980 3.104583 -18.553210 -0.713885 -0.397406 -19.605903 16.265501 -12.070195 1.078407 -4.975405 -48.043918 -12.698340 20.401176 -14.284738 -83.888455 54.416059 17.994723 -6.721668 30.044119 -20.133948 -18.712590 -17.105090 22.166715 12.138567 -0.845348 54.845560 18.801770 23.463546 -38.368250 72.786538 -11.908477 -24.155816 7.477972 9.062349 19.459890 13.685141 -8.909135 
0.062752 0.069796 -0.238512 178.503315 2.280688 -13.077523 5.551720 6.818195 -17.875716 -0.402271 16.655192 8.438068 1.264716 15.237225 12.250902 9.320780 6.626726 -14.805878 1.281398 1.984598 -2.885981 2.432572 6.733770 39.660071 10.298285 -6.086126 -11.980508 -15.648059 7.995632 2.616475 1.151939 3.733985 8.427863 2.100692 -1.658043 3.758620 -1.749963 2.684398 -2.320923 7.333661 -27.649320 0.791637 2.596670 -27.876577 8.453050 -17.834978 9.978834 -3.873777 -59.975274 1.807183 18.900085 6.539358 -80.243730 33.699980 6.194733 -11.407453 23.350486 -16.867476 -12.654080 -10.209851 24.508357 9.166657 1.930314 56.547084 12.920570 25.315345 -1.232178 75.019798 28.194535 -11.265645 15.012723 8.195460 12.625954 7.598780 -2.504530 
0.099201 0.098760 -0.310128 178.333453 -2.015586 -14.963219 9.453930 9.754651 -19.562702 0.831023 18.204733 6.692961 -2.590830 14.344243 20.586186 10.707869 6.826132 -18.260999 4.486938 3.034053 4.629371 2.015218 11.190815 29.216453 8.786532 -5.764592 -19.291311 -16.221934 9.279693 7.539030 3.854538 4.911567 10.735064 1.778591 -0.362966 4.552032 -1.076381 3.065575 -0.176349 10.166050 -31.395738 0.794862 2.162947 -34.640975 3.372630 -16.308202 16.941072 -3.913157 -67.120857 10.553861 14.028968 21.772333 -82.068052 17.009975 3.436961 -10.224933 20.941037 -18.122864 -13.261596 -11.088459 21.789543 7.932452 3.114181 55.032979 10.201929 24.543386 8.816999 73.583307 38.418886 -8.655813 15.131568 6.096074 11.344095 6.875737 -3.525407 
0.147215 0.120262 -0.403654 178.363667 -0.666538 -16.014441 13.107090 10.952159 -18.757080 -0.076803 10.455015 -0.639556 -11.445990 9.891755 32.377958 11.838649 8.925012 -22.723807 7.367317 2.680218 1.114287 2.440977 9.040903 25.958402 5.746975 -7.954061 -23.809357 -15.776595 9.056303 10.924918 4.069538 3.054772 13.787093 1.465516 -0.768452 4.211679 -0.328734 1.962104 0.587664 11.405822 -32.264205 1.243216 3.997662 -38.535326 1.865498 -15.110791 16.864827 -3.384322 -64.276925 8.949956 12.328956 54.938787 -84.272273 -17.080066 4.913040 -11.153332 22.035988 -19.993035 -14.391648 -11.260945 21.057023 7.483439 3.493908 54.705794 6.728233 23.033875 4.765450 74.451226 36.194634 -8.999832 15.282214 5.241937 11.162164 7.789642 -3.208393 
0.182712 0.118358 -0.487794 179.094667 5.530570 -16.668360 11.134369 7.335156 -20.653773 0.818886 11.038737 24.292976 -2.601776 11.516381 9.121104 6.190163 9.404716 -18.227526 7.338629 2.331974 -1.344859 1.222993 6.233507 19.061155 3.892856 -9.993441 -16.104031 -11.578400 6.216244 10.322190 1.319064 1.577887 13.314530 3.974678 -4.238576 5.086671 0.316910 -1.014485 0.408707 9.820666 -34.170221 5.126596 6.209301 -38.068172 0.727426 -15.222768 11.773159 -1.247172 -60.877909 0.740691 12.626813 72.771525 -82.520888 -37.488700 6.370964 -10.758315 21.746063 -19.140069 -11.948309 -11.143826 20.039286 4.539577 0.997446 55.166695 -0.563610 19.722779 6.353252 75.877086 38.846235 -8.923271 13.064415 3.122612 14.225133 7.408474 -0.786808 
0.209765 0.124807 -0.562695 178.606484 11.128871 -15.553340 7.412003 4.489620 -15.087362 -0.763722 9.203430 41.415521 -0.109152 10.255452 -1.167319 0.554458 11.068664 -19.033874 6.476727 1.819763 -5.685131 1.542248 3.249749 13.097679 2.490987 -9.904865 -9.336700 -8.510790 3.711001 8.848254 0.091579 -0.029608 9.415174 5.418655 -5.818092 5.406987 0.668797 -2.951928 0.366020 6.836869 -34.455766 10.333680 8.548589 -37.549958 0.165283 -14.822034 4.518742 -0.317137 -57.171763 -9.963900 15.060174 70.081878 -81.042325 -38.561513 7.570309 -14.732759 18.696563 -19.131200 -10.498565 -11.748186 17.888404 1.750009 -1.204271 56.898510 -10.147776 15.455263 -6.776815 78.206471 25.232073 -9.384337 13.180156 0.522305 17.665535 8.045624 -0.870753 
0.234834 0.145782 -0.634947 177.335043 14.307212 -15.048078 2.736663 2.100718 -1.758356 -6.175006 0.301219 39.311005 -1.346802 4.755562 -1.864314 -2.395147 12.863115 -21.649207 6.217087 2.302380 -12.352765 2.631340 0.624629 12.861461 1.200612 -10.540625 -6.129506 -6.797567 2.064186 7.740693 -0.727814 -3.148849 6.411177 5.890958 -6.274789 6.633316 0.557800 -4.026471 -0.015884 4.300340 -34.011669 12.979214 9.319856 -35.019616 1.215420 -14.360047 0.135439 -0.179225 -55.868776 -17.165067 18.166481 85.941294 -82.899353 -54.510466 11.594795 -15.133221 18.564603 -19.177116 -10.547550 -13.055401 16.891015 -0.616005 -2.679143 58.261415 -14.501991 13.326910 -27.812369 78.072372 4.082811 -11.627405 12.528997 -0.059017 19.800437 9.183869 -1.453600 
